<?xml version="1.0" encoding="utf-8"?>
<!-- Generator: Adobe Illustrator 25.4.1, SVG Export Plug-In . SVG Version: 6.00 Build 0)  -->
<svg version="1.1" id="openai-horizontal" xmlns="http://www.w3.org/2000/svg" xmlns:xlink="http://www.w3.org/1999/xlink" x="0px"
	 y="0px" viewBox="0 0 120 29.5" style="enable-background:new 0 0 120 29.5;" xml:space="preserve">
<style type="text/css">
	.st0{fill:#666666;}
	.st1{font-family:'ArialRoundedMTBold';}
	.st2{font-size:13.745px;}
	.st3{fill:none;}
	.st4{fill:#660033;}
	.st5{fill:#FFFFFF;}
</style>
<path d="M25.1,4.4L25.1,4.4C24.9,4.4,24.9,4.4,25.1,4.4c-3,0-4.7,3.1-4.7,8.5v2.8c0,5.3,1.8,8.5,4.7,8.5l0,0l0,0
	c2.8,0,4.7-3.1,4.7-8.5v-2.8C29.6,7.6,27.8,4.4,25.1,4.4z M27.7,15.8c0,3.5-0.9,5.5-2.6,5.5c-1.7,0-2.6-2.2-2.6-5.5v-3.1
	c0-3.5,0.9-5.5,2.6-5.5c1.7,0,2.6,2.2,2.6,5.5V15.8z M52.3,9.3L52.3,9.3C52.2,9.3,52.2,9.3,52.3,9.3c-1.3,0-1.9,0.8-2.3,2L50,11.7
	v-2h-1.8v14h1.9v-8.3c0-2,0.6-3.1,1.6-3.1s1.6,1.2,1.6,3.1v8.3h1.9v-9C55,11.3,54,9.3,52.3,9.3L52.3,9.3z M73.3,7.4V4.8h-6.4v2.6
	h2.3v13.6h-2.3v2.6h6.4v-2.6H71V7.4C71,7.4,73.3,7.4,73.3,7.4z M61.9,4.8L61.9,4.8H60l-3.8,18.9h2l0.7-3.9h4l0,0l0.7,3.9h2L62,4.8
	H61.9L61.9,4.8z M59.4,17l1.6-9l1.6,9C62.6,17,59.4,17,59.4,17z M35.4,9.3L35.4,9.3L35.4,9.3c-1,0-1.9,0.8-2.3,2L33,11.5v-2h-1.8
	v18.7h1.9v-6.5l0.1,0.2c0.5,1.2,1.3,1.8,2.2,1.8c0,0,0,0,0.1,0l0,0c1.6,0,3.2-2,3.2-6.1v-2.2C38.6,12.5,37.6,9.3,35.4,9.3L35.4,9.3z
	 M36.7,17.6c0,2.2-0.7,3.5-1.8,3.5c-1,0-1.8-1.6-1.8-3.5v-2.2c0-2.2,0.8-3.5,1.8-3.5c1.1,0,1.8,1.4,1.8,3.5V17.6z M43.4,9.3
	L43.4,9.3L43.4,9.3h-0.2l0,0c-2.2,0-3.5,2.6-3.5,6.5v2c0,3.9,1.4,6.3,3.5,6.3c0.1,0,0.1,0,0.2,0h0.1c1.5,0,2.5-1,3.2-3.1l-1.3-1.4
	c-0.5,1.2-1,2.2-1.8,2.2c-1.1,0-1.8-1.2-1.8-3.3v-0.6h5.1v-2.4C46.8,11.7,45.4,9.3,43.4,9.3L43.4,9.3z M41.7,15.4v-0.2
	c0-2.2,0.6-3.5,1.6-3.5c1,0.2,1.6,1.2,1.6,3.3v0.4H41.7L41.7,15.4z"/>
<path d="M17.9,13.3c0.4-1.5,0.3-3.3-0.4-4.8c-1-2.2-3.1-3.3-5.1-2.8c-0.9-1.3-2.2-1.9-3.6-1.9c-2,0-3.8,1.7-4.5,4.1
	C3,8.2,1.8,9.2,1.2,10.7c-1,2.2-0.8,5,0.6,6.9c-0.4,1.5-0.3,3.3,0.4,4.8c1,2.2,3.1,3.3,5.1,2.8c0.9,1.3,2.2,1.9,3.5,1.9
	c2.1,0,3.9-1.7,4.5-4.1c1.3-0.4,2.5-1.4,3.1-2.8C19.6,18.1,19.3,15.2,17.9,13.3L17.9,13.3z M16.5,9.3c0.4,0.9,0.6,1.9,0.4,3
	c0,0-0.1,0-0.1-0.1L13,9.6c-0.2-0.1-0.4-0.1-0.6,0L8,12.7v-2.3l3.6-2.6C13.3,6.5,15.5,7.3,16.5,9.3z M8,14.2l1.9-1.3l1.9,1.3v2.7
	l-1.9,1.3L8,16.9C8,16.9,8,14.2,8,14.2z M8.9,5.3c0.8,0,1.6,0.4,2.3,1c0,0-0.1,0-0.1,0.1L7.3,9.2C7.1,9.3,7,9.6,7,9.8v6.3L5.4,15
	V9.8C5.3,7.3,6.9,5.3,8.9,5.3L8.9,5.3z M2.2,11.5L2.2,11.5C2.6,10.6,3.3,10,4,9.6v5.5c0,0.3,0.1,0.5,0.3,0.6l4.4,3.1L7.1,20
	l-3.6-2.6C1.9,16.3,1.3,13.6,2.2,11.5z M3.2,21.7L3.2,21.7c-0.4-0.9-0.6-1.9-0.4-3c0,0,0.1,0,0.1,0.1l3.8,2.7c0.2,0.1,0.4,0.1,0.6,0
	l4.4-3.1v2.3l-3.6,2.6C6.4,24.4,4.2,23.7,3.2,21.7L3.2,21.7z M10.8,25.7c-0.8,0-1.6-0.4-2.3-1c0,0,0.1,0,0.1-0.1l3.8-2.7
	c0.2-0.1,0.3-0.4,0.3-0.6v-6.3l1.6,1.2v5.1C14.4,23.7,12.8,25.7,10.8,25.7L10.8,25.7z M17.5,19.5c-0.4,0.9-1.1,1.5-1.8,1.9v-5.5
	c0-0.3-0.1-0.5-0.3-0.6l0,0L11,12.2l1.6-1.2l3.6,2.6C17.9,14.7,18.4,17.4,17.5,19.5L17.5,19.5z"/>
<text transform="matrix(1.1227 0 0 1 74.4884 19.2642)" class="st0 st1 st2">X</text>
<rect x="92.1" y="14.5" class="st3" width="5.1" height="0.1"/>
<polygon class="st3" points="89.5,13.9 96.1,13.9 96.1,13.9 "/>
<g>
	<path class="st4" d="M117.9,14.9c0,0.2-0.1,0.4-0.1,0.7c0,0.1,0,0.2,0,0.2c-0.1,0.6-0.1,1.2-0.2,1.9c0,0.2-0.1,0.3-0.2,0.3
		c-0.8,0.3-1.4,0.7-2.2,1.1c-3.2,1.5-6.4,2.3-9.7,3c-0.4,0.1-0.9,0-1.1-0.3c-0.1-0.2-0.2-0.5-0.3-0.7c-0.1-0.3-0.2-0.5-0.3-0.8
		c-0.1-0.2-0.3-0.3-0.8-0.2c-0.2,0.1-0.3,0.1-0.7,0.2c-0.7,0.3-1.1,0.7-1.5,1.2c-0.7,0.4-1.1,0.8-1.6,1.4c-0.2,0.2-0.7,0.3-1,0.3
		c-0.8,0-1.4,0-2.2,0c-1.5,0-3.2-0.1-4.6-0.1c-0.3,0-0.7-0.1-0.9-0.4c-1.6-2.5-2.4-5.3-2.2-8.2c0.2-2.2,1-4.3,2.3-6.1
		C90.8,8,90.9,7.9,91,7.9c1.3,0,2.6-0.1,3.9-0.1c1.3,0,2.6,0,3.9,0.1c1.6,0.1,3.5,0.2,5.2,0.4c0.4,0.1,0.9,0.1,1.3,0
		c0.3-0.1,0.8-0.3,1-0.4c0.4-0.2,1-0.4,1.5-0.6c0.4-0.2,0.9-0.1,1.2,0.3c0.1,0.1,0.1,0.3,0.2,0.4c0.2,0.3,0.3,0.7,0.7,1.1
		c0.3,0.5,0.9,0.8,1.5,1.1c2.1,0.4,3.9,1.2,5.8,2.2c0.3,0.2,0.7,0.4,0.7,0.7c0,0.1,0,0.2,0,0.4c0,0.2,0,0.3,0,0.5
		C118,14.4,118,14.7,117.9,14.9z"/>
	<path class="st5" d="M118.1,14.9c0-0.4-0.1-0.8-0.1-1.4c0-0.1,0-0.2,0-0.4c0-0.4-0.2-0.6-0.7-0.7c-1.8-0.9-3.7-1.8-5.8-2.2
		c-0.8-0.1-1.2-0.5-1.5-1.1c-0.2-0.3-0.3-0.7-0.7-1.1c-0.1-0.1-0.1-0.3-0.2-0.4c-0.2-0.4-0.8-0.5-1.2-0.3s-1,0.4-1.5,0.6
		c-0.3,0.1-0.8,0.3-1,0.4c-0.3,0.2-0.9,0.1-1.3,0c-1.6-0.2-3.5-0.4-5.2-0.4c-1.3,0-2.6-0.1-3.9-0.1c-1.3,0-2.6,0.1-3.9,0.1
		c-0.1,0-0.2,0.1-0.3,0.2c-1.3,1.9-2.1,4-2.3,6.1c-0.2,3,0.4,5.7,2.2,8.2c0.2,0.3,0.4,0.4,0.9,0.4c1.5,0,3.2,0.1,4.6,0.1
		c0.8,0,1.4,0,2.2,0c0.3,0,0.8-0.1,1-0.3c0.7-0.4,1.1-0.8,1.6-1.4c0.4-0.4,1.1-0.7,1.5-1.2c0.1-0.1,0.3-0.2,0.7-0.2
		c0.2-0.1,0.7,0,0.8,0.2c0.1,0.2,0.2,0.5,0.3,0.8c0.1,0.3,0.2,0.5,0.3,0.7c0.2,0.3,0.7,0.4,1.1,0.3c3.4-0.6,6.6-1.6,9.7-3
		c0.8-0.3,1.4-0.7,2.2-1.1c0.1-0.1,0.2-0.2,0.2-0.3c0.1-0.6,0.1-1.2,0.2-1.9c0-0.1,0-0.1,0-0.2v0.2c0,7.1-6.2,12.8-13.9,12.8l0,0
		c0.1,0,0.1,0,0.2,0c0.7-0.1,1.1-0.1,1.6-0.2c4.8-0.8,8.3-3.2,10.5-7.2c0.1-0.2,0.2-0.5,0.4-0.7c-0.1,0-0.1,0.1-0.2,0.1
		c-2.5,1.2-5.3,2.1-8,2.6c-1.2,0.2-2.3,0.4-3.5,0.4c-0.8,0-1.3-0.3-1.8-0.7c-0.1-0.1-0.2-0.3-0.3-0.4c-0.4-0.4-0.8-0.4-1.3,0
		c-0.3,0.3-0.9,0.5-1.2,0.8c-1,0.6-2.1,1.2-3.3,1.2c-1.3,0-2.6,0-3.9,0c-0.1,0-0.2,0-0.3,0c0,0,0,0,0,0.1c0.3,0.3,0.5,0.5,0.9,0.7
		c0.5,0.4,1.2,0.9,1.8,1.3c1.7,0.9,3.7,1.7,5.8,1.8c0.3,0,0.9,0.1,1.2,0.1h-0.4c-7.7,0-13.9-5.7-13.9-12.8v-1.6
		c0-6.8,6.3-12.6,14-12.6h2.1c7.7,0,13.9,5.7,13.9,12.8C118.1,14.5,118.1,14.7,118.1,14.9z M93.1,5.7c0.1,0,0.1,0,0.2,0
		c1.4,0,3,0,4.5,0s3,0.2,4.5,0.3c1.6,0.1,3.4-0.1,4.9-0.6c0.3-0.1,0.9-0.3,1.3-0.3c0.9-0.2,1.6,0.2,2.1,0.8c0.1,0.2,0.2,0.4,0.2,0.6
		c0.2,0.6,0.8,1.1,1.3,1.4c0.2,0.1,0.3,0.1,0.7,0.2c0.9,0.3,1.6,0.5,2.5,0.8c0.8,0.2,1.3,0.5,2.1,0.8c-2.1-4.1-5.4-6.8-10.3-7.7
		C101.6,1,97,2.2,93.1,5.7z"/>
	<path class="st4" d="M102.9,28.6c-0.3,0-0.9-0.1-1.2-0.1c-2.6-0.3-5-1.2-7.1-2.6c-0.4-0.3-1-0.7-1.4-1.2c0,0,0,0,0-0.1
		c0.1,0,0.2,0,0.3,0c1.3,0,2.6,0,3.9,0c1.2,0,2.3-0.5,3.3-1.2c0.3-0.3,0.9-0.6,1.2-0.8c0.7-0.3,0.8-0.3,1.3,0
		c0.1,0.1,0.2,0.2,0.3,0.4c0.4,0.4,1.1,0.7,1.8,0.7c1.2,0,2.4-0.1,3.5-0.4c2.7-0.6,5.5-1.5,8-2.6c0,0,0.1,0,0.2-0.1
		c-0.1,0.3-0.2,0.5-0.4,0.7c-2.3,3.9-5.8,6.3-10.5,7.2c-0.3,0.1-0.5,0.1-0.9,0.1c-0.5,0-1.4,0.1-2,0.1L102.9,28.6z"/>
	<path class="st4" d="M93.2,5.5c1-0.8,3.2-2.6,6.6-3.4c1-0.2,3.7-0.7,7-0.1c4.8,0.9,8.1,3.6,10.3,7.7c-0.5-0.2-1.1-0.4-1.5-0.6
		c-0.3-0.1-0.7-0.3-1-0.4c-0.7-0.2-1.3-0.4-2.1-0.7c-0.2-0.1-0.3-0.1-0.7-0.2c-0.8-0.2-1.1-0.6-1.3-1.4c-0.1-0.2-0.1-0.4-0.2-0.6
		c-0.3-0.6-1.2-1.1-2.1-0.8c-0.4,0.1-0.9,0.2-1.3,0.3c-1.5,0.5-3.3,0.7-4.9,0.6c-1.3-0.1-2.6-0.2-3.9-0.3c-0.3,0-0.8,0-1.1,0
		C95.7,5.5,94.5,5.5,93.2,5.5z"/>
</g>
<path d="M121.7,14.5"/>
<path d="M98.2,6.7"/>
</svg>
